<mxfile host="app.diagrams.net" modified="2024-03-08T14:31:56.974Z" agent="Mozilla/5.0 (Windows NT 10.0; Win64; x64) AppleWebKit/537.36 (KHTML, like Gecko) Chrome/122.0.0.0 Safari/537.36 Edg/122.0.0.0" etag="VAqq1SIsgXgwVYAKgIl7" version="24.0.1" type="github">
  <diagram id="_y_MiWxf_ru2kXOl8PKq" name="第 1 页">
    <mxGraphModel dx="1165" dy="685" grid="1" gridSize="10" guides="1" tooltips="1" connect="1" arrows="0" fold="1" page="1" pageScale="1" pageWidth="827" pageHeight="1169" math="0" shadow="0">
      <root>
        <mxCell id="0" />
        <mxCell id="1" parent="0" />
        <mxCell id="ek3AfG3ewywKdCFBDNp1-17" value="" style="edgeStyle=orthogonalEdgeStyle;rounded=0;orthogonalLoop=1;jettySize=auto;html=1;fontSize=24;entryX=0.5;entryY=0;entryDx=0;entryDy=0;strokeWidth=3;fillColor=#fff2cc;strokeColor=#d6b656;" parent="1" source="ek3AfG3ewywKdCFBDNp1-6" target="ek3AfG3ewywKdCFBDNp1-7" edge="1">
          <mxGeometry relative="1" as="geometry">
            <mxPoint x="380" y="200" as="targetPoint" />
          </mxGeometry>
        </mxCell>
        <mxCell id="ek3AfG3ewywKdCFBDNp1-6" value="&lt;font face=&quot;宋体&quot;&gt;开始&lt;/font&gt;" style="strokeWidth=2;html=1;shape=mxgraph.flowchart.start_1;whiteSpace=wrap;fontSize=24;fillColor=#fff2cc;strokeColor=#d6b656;" parent="1" vertex="1">
          <mxGeometry x="330" y="140" width="90" height="50" as="geometry" />
        </mxCell>
        <mxCell id="ek3AfG3ewywKdCFBDNp1-19" value="" style="edgeStyle=orthogonalEdgeStyle;rounded=0;orthogonalLoop=1;jettySize=auto;html=1;fontSize=24;entryX=0.5;entryY=0;entryDx=0;entryDy=0;strokeWidth=3;strokeColor=#66B2FF;" parent="1" source="ek3AfG3ewywKdCFBDNp1-7" target="KWmsBKfHiFpu-AzZeGoA-4" edge="1">
          <mxGeometry relative="1" as="geometry">
            <mxPoint x="375" y="290" as="targetPoint" />
          </mxGeometry>
        </mxCell>
        <mxCell id="KWmsBKfHiFpu-AzZeGoA-8" style="edgeStyle=orthogonalEdgeStyle;rounded=0;orthogonalLoop=1;jettySize=auto;html=1;entryX=0.5;entryY=0;entryDx=0;entryDy=0;strokeWidth=3;strokeColor=#66B2FF;" parent="1" source="ek3AfG3ewywKdCFBDNp1-7" target="KWmsBKfHiFpu-AzZeGoA-3" edge="1">
          <mxGeometry relative="1" as="geometry">
            <Array as="points">
              <mxPoint x="375" y="280" />
              <mxPoint x="205" y="280" />
            </Array>
          </mxGeometry>
        </mxCell>
        <mxCell id="KWmsBKfHiFpu-AzZeGoA-9" style="edgeStyle=orthogonalEdgeStyle;rounded=0;orthogonalLoop=1;jettySize=auto;html=1;strokeColor=#66B2FF;strokeWidth=3;" parent="1" source="ek3AfG3ewywKdCFBDNp1-7" target="KWmsBKfHiFpu-AzZeGoA-6" edge="1">
          <mxGeometry relative="1" as="geometry" />
        </mxCell>
        <mxCell id="ek3AfG3ewywKdCFBDNp1-7" value="&lt;font face=&quot;Times New Roman&quot;&gt;K-MEANS&lt;/font&gt;&lt;font face=&quot;宋体&quot;&gt;分群&lt;/font&gt;" style="rounded=0;whiteSpace=wrap;html=1;fontSize=24;fillColor=#fff2cc;strokeColor=none;" parent="1" vertex="1">
          <mxGeometry x="240" y="220" width="270" height="40" as="geometry" />
        </mxCell>
        <mxCell id="KWmsBKfHiFpu-AzZeGoA-11" value="" style="edgeStyle=orthogonalEdgeStyle;rounded=0;orthogonalLoop=1;jettySize=auto;html=1;strokeColor=#66B2FF;strokeWidth=4;" parent="1" source="KWmsBKfHiFpu-AzZeGoA-3" target="KWmsBKfHiFpu-AzZeGoA-10" edge="1">
          <mxGeometry relative="1" as="geometry" />
        </mxCell>
        <mxCell id="KWmsBKfHiFpu-AzZeGoA-19" style="edgeStyle=orthogonalEdgeStyle;rounded=0;orthogonalLoop=1;jettySize=auto;html=1;entryX=0.5;entryY=0;entryDx=0;entryDy=0;fillColor=#fff2cc;strokeColor=#e27878;strokeWidth=4;" parent="1" source="KWmsBKfHiFpu-AzZeGoA-3" target="KWmsBKfHiFpu-AzZeGoA-21" edge="1">
          <mxGeometry relative="1" as="geometry">
            <mxPoint x="110" y="440" as="targetPoint" />
          </mxGeometry>
        </mxCell>
        <mxCell id="KWmsBKfHiFpu-AzZeGoA-3" value="&lt;font style=&quot;font-size: 24px;&quot;&gt;k&lt;sub&gt;1&lt;/sub&gt;&lt;/font&gt;" style="rounded=1;whiteSpace=wrap;html=1;fillColor=#dae8fc;fontFamily=宋体;fontSize=24;strokeColor=none;" parent="1" vertex="1">
          <mxGeometry x="180" y="300" width="50" height="100" as="geometry" />
        </mxCell>
        <mxCell id="KWmsBKfHiFpu-AzZeGoA-13" style="edgeStyle=orthogonalEdgeStyle;rounded=0;orthogonalLoop=1;jettySize=auto;html=1;strokeColor=#66B2FF;strokeWidth=4;" parent="1" source="KWmsBKfHiFpu-AzZeGoA-4" target="KWmsBKfHiFpu-AzZeGoA-12" edge="1">
          <mxGeometry relative="1" as="geometry" />
        </mxCell>
        <mxCell id="KWmsBKfHiFpu-AzZeGoA-27" style="edgeStyle=orthogonalEdgeStyle;rounded=0;orthogonalLoop=1;jettySize=auto;html=1;fillColor=#fff2cc;strokeColor=#E27878;strokeWidth=4;entryX=1;entryY=0.5;entryDx=0;entryDy=0;" parent="1" source="KWmsBKfHiFpu-AzZeGoA-4" target="KWmsBKfHiFpu-AzZeGoA-21" edge="1">
          <mxGeometry relative="1" as="geometry">
            <mxPoint x="180" y="420" as="targetPoint" />
            <Array as="points">
              <mxPoint x="270" y="350" />
              <mxPoint x="270" y="445" />
            </Array>
          </mxGeometry>
        </mxCell>
        <mxCell id="KWmsBKfHiFpu-AzZeGoA-4" value="&lt;font style=&quot;font-size: 24px;&quot;&gt;k&lt;/font&gt;&lt;font style=&quot;font-size: 20px;&quot;&gt;&lt;sub&gt;2&lt;/sub&gt;&lt;/font&gt;" style="rounded=1;whiteSpace=wrap;html=1;fillColor=#dae8fc;fontFamily=宋体;fontSize=24;strokeColor=none;" parent="1" vertex="1">
          <mxGeometry x="290" y="300" width="50" height="100" as="geometry" />
        </mxCell>
        <mxCell id="KWmsBKfHiFpu-AzZeGoA-15" style="edgeStyle=orthogonalEdgeStyle;rounded=0;orthogonalLoop=1;jettySize=auto;html=1;entryX=0.5;entryY=0;entryDx=0;entryDy=0;strokeWidth=4;strokeColor=#66B2FF;" parent="1" source="KWmsBKfHiFpu-AzZeGoA-6" target="KWmsBKfHiFpu-AzZeGoA-14" edge="1">
          <mxGeometry relative="1" as="geometry" />
        </mxCell>
        <mxCell id="KWmsBKfHiFpu-AzZeGoA-28" style="edgeStyle=orthogonalEdgeStyle;rounded=0;orthogonalLoop=1;jettySize=auto;html=1;entryX=1;entryY=0.5;entryDx=0;entryDy=0;fillColor=#fff2cc;strokeColor=#E27878;strokeWidth=4;" parent="1" source="KWmsBKfHiFpu-AzZeGoA-6" target="KWmsBKfHiFpu-AzZeGoA-21" edge="1">
          <mxGeometry relative="1" as="geometry">
            <Array as="points">
              <mxPoint x="400" y="380" />
              <mxPoint x="400" y="445" />
            </Array>
          </mxGeometry>
        </mxCell>
        <mxCell id="KWmsBKfHiFpu-AzZeGoA-6" value="&lt;font style=&quot;font-size: 24px;&quot;&gt;k&lt;/font&gt;&lt;font style=&quot;font-size: 20px;&quot;&gt;&lt;sub&gt;K&lt;/sub&gt;&lt;/font&gt;" style="rounded=1;whiteSpace=wrap;html=1;fillColor=#dae8fc;fontFamily=宋体;fontSize=24;strokeColor=none;" parent="1" vertex="1">
          <mxGeometry x="485" y="300" width="50" height="100" as="geometry" />
        </mxCell>
        <mxCell id="KWmsBKfHiFpu-AzZeGoA-7" value="" style="endArrow=none;dashed=1;html=1;dashPattern=1 3;strokeWidth=3;rounded=0;" parent="1" edge="1">
          <mxGeometry width="50" height="50" relative="1" as="geometry">
            <mxPoint x="390" y="350" as="sourcePoint" />
            <mxPoint x="460" y="350" as="targetPoint" />
          </mxGeometry>
        </mxCell>
        <mxCell id="zpgxpEKYq8m902Y9zk07-6" value="" style="edgeStyle=orthogonalEdgeStyle;rounded=0;orthogonalLoop=1;jettySize=auto;html=1;strokeWidth=3;strokeColor=#66B2FF;" edge="1" parent="1" source="KWmsBKfHiFpu-AzZeGoA-10" target="zpgxpEKYq8m902Y9zk07-2">
          <mxGeometry relative="1" as="geometry" />
        </mxCell>
        <mxCell id="KWmsBKfHiFpu-AzZeGoA-10" value="&lt;font face=&quot;Times New Roman&quot;&gt;CAACO&lt;/font&gt;" style="rounded=1;whiteSpace=wrap;html=1;fillColor=#ffe6cc;fontFamily=宋体;fontSize=24;strokeColor=none;" parent="1" vertex="1">
          <mxGeometry x="157.5" y="480" width="95" height="50" as="geometry" />
        </mxCell>
        <mxCell id="zpgxpEKYq8m902Y9zk07-7" value="" style="edgeStyle=orthogonalEdgeStyle;rounded=0;orthogonalLoop=1;jettySize=auto;html=1;strokeWidth=3;strokeColor=#66B2FF;" edge="1" parent="1" source="KWmsBKfHiFpu-AzZeGoA-12" target="zpgxpEKYq8m902Y9zk07-3">
          <mxGeometry relative="1" as="geometry" />
        </mxCell>
        <mxCell id="KWmsBKfHiFpu-AzZeGoA-12" value="&lt;font face=&quot;Times New Roman&quot;&gt;CAACO&lt;/font&gt;" style="rounded=1;whiteSpace=wrap;html=1;fillColor=#ffe6cc;fontFamily=宋体;fontSize=24;strokeColor=none;" parent="1" vertex="1">
          <mxGeometry x="267.5" y="480" width="95" height="50" as="geometry" />
        </mxCell>
        <mxCell id="zpgxpEKYq8m902Y9zk07-8" value="" style="edgeStyle=orthogonalEdgeStyle;rounded=0;orthogonalLoop=1;jettySize=auto;html=1;strokeWidth=3;strokeColor=#66B2FF;" edge="1" parent="1" source="KWmsBKfHiFpu-AzZeGoA-14" target="zpgxpEKYq8m902Y9zk07-4">
          <mxGeometry relative="1" as="geometry" />
        </mxCell>
        <mxCell id="KWmsBKfHiFpu-AzZeGoA-14" value="&lt;font face=&quot;Times New Roman&quot;&gt;CAACO&lt;/font&gt;" style="rounded=1;whiteSpace=wrap;html=1;fillColor=#ffe6cc;fontFamily=宋体;fontSize=24;strokeColor=none;" parent="1" vertex="1">
          <mxGeometry x="462.5" y="480" width="95" height="50" as="geometry" />
        </mxCell>
        <mxCell id="KWmsBKfHiFpu-AzZeGoA-16" value="" style="endArrow=none;dashed=1;html=1;dashPattern=1 3;strokeWidth=3;rounded=0;" parent="1" edge="1">
          <mxGeometry width="50" height="50" relative="1" as="geometry">
            <mxPoint x="379" y="504.3299999999999" as="sourcePoint" />
            <mxPoint x="449" y="504.3299999999999" as="targetPoint" />
          </mxGeometry>
        </mxCell>
        <mxCell id="zpgxpEKYq8m902Y9zk07-9" style="edgeStyle=orthogonalEdgeStyle;rounded=0;orthogonalLoop=1;jettySize=auto;html=1;strokeWidth=3;strokeColor=#E27878;" edge="1" parent="1" source="KWmsBKfHiFpu-AzZeGoA-21" target="KWmsBKfHiFpu-AzZeGoA-30">
          <mxGeometry relative="1" as="geometry" />
        </mxCell>
        <mxCell id="KWmsBKfHiFpu-AzZeGoA-21" value="&lt;font face=&quot;Times New Roman&quot;&gt;CAACO&lt;/font&gt;" style="rounded=1;whiteSpace=wrap;html=1;fillColor=#ffe6cc;fontFamily=宋体;fontSize=24;strokeColor=none;" parent="1" vertex="1">
          <mxGeometry x="30" y="420" width="120" height="50" as="geometry" />
        </mxCell>
        <mxCell id="zpgxpEKYq8m902Y9zk07-12" value="" style="edgeStyle=orthogonalEdgeStyle;rounded=0;orthogonalLoop=1;jettySize=auto;html=1;fillColor=#fff2cc;strokeColor=#E27878;strokeWidth=3;" edge="1" parent="1" source="KWmsBKfHiFpu-AzZeGoA-30" target="zpgxpEKYq8m902Y9zk07-11">
          <mxGeometry relative="1" as="geometry">
            <Array as="points">
              <mxPoint x="90" y="840" />
              <mxPoint x="315" y="840" />
            </Array>
          </mxGeometry>
        </mxCell>
        <mxCell id="KWmsBKfHiFpu-AzZeGoA-30" value="群&lt;div&gt;间&lt;/div&gt;&lt;div&gt;配&lt;/div&gt;&lt;div&gt;送&lt;/div&gt;&lt;div&gt;顺&lt;/div&gt;&lt;div&gt;序&lt;/div&gt;" style="rounded=1;whiteSpace=wrap;html=1;fillColor=#f8cecc;fontFamily=宋体;fontSize=24;strokeColor=none;" parent="1" vertex="1">
          <mxGeometry x="65" y="560" width="50" height="220" as="geometry" />
        </mxCell>
        <mxCell id="zpgxpEKYq8m902Y9zk07-13" style="edgeStyle=orthogonalEdgeStyle;rounded=0;orthogonalLoop=1;jettySize=auto;html=1;entryX=0.5;entryY=0;entryDx=0;entryDy=0;strokeWidth=3;strokeColor=#66B2FF;" edge="1" parent="1" source="zpgxpEKYq8m902Y9zk07-2" target="zpgxpEKYq8m902Y9zk07-11">
          <mxGeometry relative="1" as="geometry">
            <Array as="points">
              <mxPoint x="204" y="840" />
              <mxPoint x="315" y="840" />
            </Array>
          </mxGeometry>
        </mxCell>
        <mxCell id="zpgxpEKYq8m902Y9zk07-2" value="&lt;div&gt;k&lt;sub&gt;1&lt;/sub&gt;&lt;/div&gt;群&lt;div&gt;&lt;span style=&quot;background-color: initial;&quot;&gt;内&lt;/span&gt;&lt;/div&gt;&lt;div&gt;&lt;span style=&quot;background-color: initial;&quot;&gt;配&lt;/span&gt;&lt;br&gt;&lt;/div&gt;&lt;div&gt;送&lt;/div&gt;&lt;div&gt;顺&lt;/div&gt;&lt;div&gt;序&lt;/div&gt;" style="rounded=1;whiteSpace=wrap;html=1;fillColor=#dae8fc;fontFamily=宋体;fontSize=24;strokeColor=none;" vertex="1" parent="1">
          <mxGeometry x="178.75" y="560" width="50" height="220" as="geometry" />
        </mxCell>
        <mxCell id="zpgxpEKYq8m902Y9zk07-14" style="edgeStyle=orthogonalEdgeStyle;rounded=0;orthogonalLoop=1;jettySize=auto;html=1;entryX=0.5;entryY=0;entryDx=0;entryDy=0;strokeWidth=3;strokeColor=#66B2FF;" edge="1" parent="1" source="zpgxpEKYq8m902Y9zk07-3" target="zpgxpEKYq8m902Y9zk07-11">
          <mxGeometry relative="1" as="geometry" />
        </mxCell>
        <mxCell id="zpgxpEKYq8m902Y9zk07-3" value="&lt;div&gt;k&lt;span style=&quot;font-size: 20px;&quot;&gt;&lt;sub&gt;2&lt;/sub&gt;&lt;/span&gt;&lt;/div&gt;群&lt;div&gt;&lt;span style=&quot;background-color: initial;&quot;&gt;内&lt;/span&gt;&lt;/div&gt;&lt;div&gt;&lt;span style=&quot;background-color: initial;&quot;&gt;配&lt;/span&gt;&lt;br&gt;&lt;/div&gt;&lt;div&gt;送&lt;/div&gt;&lt;div&gt;顺&lt;/div&gt;&lt;div&gt;序&lt;/div&gt;" style="rounded=1;whiteSpace=wrap;html=1;fillColor=#dae8fc;fontFamily=宋体;fontSize=24;strokeColor=none;" vertex="1" parent="1">
          <mxGeometry x="290" y="560" width="50" height="220" as="geometry" />
        </mxCell>
        <mxCell id="zpgxpEKYq8m902Y9zk07-15" style="edgeStyle=orthogonalEdgeStyle;rounded=0;orthogonalLoop=1;jettySize=auto;html=1;entryX=0.5;entryY=0;entryDx=0;entryDy=0;strokeWidth=3;strokeColor=#66B2FF;" edge="1" parent="1" source="zpgxpEKYq8m902Y9zk07-4" target="zpgxpEKYq8m902Y9zk07-11">
          <mxGeometry relative="1" as="geometry">
            <Array as="points">
              <mxPoint x="510" y="840" />
              <mxPoint x="315" y="840" />
            </Array>
          </mxGeometry>
        </mxCell>
        <mxCell id="zpgxpEKYq8m902Y9zk07-4" value="&lt;div&gt;k&lt;span style=&quot;font-size: 20px;&quot;&gt;&lt;sub&gt;K&lt;/sub&gt;&lt;/span&gt;&lt;/div&gt;群&lt;div&gt;&lt;span style=&quot;background-color: initial;&quot;&gt;内&lt;/span&gt;&lt;/div&gt;&lt;div&gt;&lt;span style=&quot;background-color: initial;&quot;&gt;配&lt;/span&gt;&lt;br&gt;&lt;/div&gt;&lt;div&gt;送&lt;/div&gt;&lt;div&gt;顺&lt;/div&gt;&lt;div&gt;序&lt;/div&gt;" style="rounded=1;whiteSpace=wrap;html=1;fillColor=#dae8fc;fontFamily=宋体;fontSize=24;strokeColor=none;" vertex="1" parent="1">
          <mxGeometry x="485" y="560" width="50" height="220" as="geometry" />
        </mxCell>
        <mxCell id="zpgxpEKYq8m902Y9zk07-5" value="" style="endArrow=none;dashed=1;html=1;dashPattern=1 3;strokeWidth=3;rounded=0;" edge="1" parent="1">
          <mxGeometry width="50" height="50" relative="1" as="geometry">
            <mxPoint x="379" y="639.9999999999999" as="sourcePoint" />
            <mxPoint x="449" y="639.9999999999999" as="targetPoint" />
          </mxGeometry>
        </mxCell>
        <mxCell id="zpgxpEKYq8m902Y9zk07-10" value="&lt;span style=&quot;font-size: 18pt;&quot;&gt;&lt;font face=&quot;宋体&quot;&gt;并行计算&lt;/font&gt;&lt;/span&gt;" style="rounded=1;whiteSpace=wrap;html=1;fillColor=#ffe6cc;fontFamily=宋体;fontSize=24;strokeColor=none;" vertex="1" parent="1">
          <mxGeometry x="600" y="480" width="150" height="50" as="geometry" />
        </mxCell>
        <mxCell id="zpgxpEKYq8m902Y9zk07-16" style="edgeStyle=orthogonalEdgeStyle;rounded=0;orthogonalLoop=1;jettySize=auto;html=1;entryX=0.5;entryY=0;entryDx=0;entryDy=0;fillColor=#ffe6cc;strokeColor=#d79b00;strokeWidth=3;" edge="1" parent="1" source="zpgxpEKYq8m902Y9zk07-11" target="zpgxpEKYq8m902Y9zk07-18">
          <mxGeometry relative="1" as="geometry">
            <mxPoint x="315" y="980.0000000000002" as="targetPoint" />
          </mxGeometry>
        </mxCell>
        <mxCell id="zpgxpEKYq8m902Y9zk07-11" value="配送顺序合并" style="whiteSpace=wrap;html=1;fontSize=24;fontFamily=宋体;fillColor=#fff2cc;rounded=1;strokeColor=none;" vertex="1" parent="1">
          <mxGeometry x="222.5" y="880" width="185" height="50" as="geometry" />
        </mxCell>
        <mxCell id="zpgxpEKYq8m902Y9zk07-17" value="&lt;font face=&quot;宋体&quot;&gt;结束&lt;/font&gt;" style="strokeWidth=2;html=1;shape=mxgraph.flowchart.start_1;whiteSpace=wrap;fontSize=24;fillColor=#fff2cc;strokeColor=#d6b656;" vertex="1" parent="1">
          <mxGeometry x="270" y="1060" width="90" height="50" as="geometry" />
        </mxCell>
        <mxCell id="zpgxpEKYq8m902Y9zk07-18" value="物流配送路径规划方案" style="whiteSpace=wrap;html=1;fontSize=24;fontFamily=宋体;fillColor=#fff2cc;rounded=1;strokeColor=none;" vertex="1" parent="1">
          <mxGeometry x="176.25" y="970" width="277.5" height="50" as="geometry" />
        </mxCell>
        <mxCell id="zpgxpEKYq8m902Y9zk07-19" style="edgeStyle=orthogonalEdgeStyle;rounded=0;orthogonalLoop=1;jettySize=auto;html=1;fillColor=#ffe6cc;strokeColor=#d79b00;strokeWidth=3;exitX=0.5;exitY=1;exitDx=0;exitDy=0;entryX=0.5;entryY=0;entryDx=0;entryDy=0;entryPerimeter=0;" edge="1" parent="1" source="zpgxpEKYq8m902Y9zk07-18" target="zpgxpEKYq8m902Y9zk07-17">
          <mxGeometry relative="1" as="geometry">
            <mxPoint x="320" y="1080" as="targetPoint" />
            <mxPoint x="510" y="1060" as="sourcePoint" />
          </mxGeometry>
        </mxCell>
      </root>
    </mxGraphModel>
  </diagram>
</mxfile>
